<svg height="511pt" viewBox="-21 0 511 511.99684" width="511pt" xmlns="http://www.w3.org/2000/svg"><path d="m435.820312 159.527344c12.199219 3.335937.46875-18.152344 8.425782-32.40625 7.101562-12.71875 16.964844-8.621094 17.652344-35.144532.417968-16.109374-.003907-34.335937-11.804688-45.292968-6.84375-6.355469-25.753906-12.785156-24.242188-34.871094.117188-1.730469-1.195312-3.222656-2.925781-3.304688-23.144531-1.097656-46.332031-1.300781-69.492187-.617187-10.105469.300781-13.011719 1.265625-21.863282 8.070313-44.160156 33.941406-43.621093 30.605468-45.007812 44.464843-4.585938 45.875-5.410156 45.4375-2.371094 46.886719 28.363282 13.535156 35.109375 4.65625 23.296875 19.523438-5.476562 6.894531-5.617187 17.515624-.324219 24.554687 4.566407 6.070313 12.8125 8.984375 20.210938 7.507813 2.398438-.480469 4.839844.71875 5.925781 2.910156 4.527344 9.148437 2.9375 20.960937-2.191406 30.054687-7.566406 13.429688-40.972656 42.460938-62.003906 44.949219-16.40625 1.941406-63.714844-12.304688-57.660157-32.195312 1.9375-6.367188 13.953126-15.417969 7.707032-32.25 5.570312-2.011719 11.300781-4.121094 15.671875-8.125 4.371093-4 7.085937-10.421876 5.039062-15.988282l-9.269531-.308594c-1.207031-7.839843-.953125-17.414062-3.625-23.515624-2.671875-6.097657-24.933594-12.136719-29.957031-12.136719-5.023438 0-34.441407 103.917969-72.527344 142.316406-7.191406 7.25-7.898437 10.046875-5.597656 18.820313 4.257812 16.242187 8.515625 32.484374 12.773437 48.722656 4.417969 16.84375 9.023438 14.945312 17.28125 20.804687 6.117188 4.339844 9.640625 11.363281 14.394532 17.164063 17.28125 21.085937 26.171874-1.277344 35.550781 2.992187 4.101562 1.871094 4.964843 7.695313 8.832031 10.011719 6.679688 4.007812 21.316406-6.042969 22.035156 7.707031.617188 11.785157 11.046875 20.488281 22.144532 23.417969 10.273437 2.714844 21.121093 1.453125 31.667968.171875 2.171875 9.808594 10.964844 17.058594 20.480469 20.230469 8.636719 2.878906 17.886719 2.988281 27.015625 2.816406 1.679688-.035156 3.160156-1.101562 3.710938-2.683594l19.003906-54.410156c1.726562-4.945312 1.417968-6.734375-2.570313-10.726562-27.753906-27.769532-27.703125-25.644532-25.867187-34.058594 2.347656-10.746094 4.691406-21.492188 7.039062-32.242188 8.097656-3.9375 18.558594-2.3125 25.085938 3.894532 6.371094 6.0625 6.523437 8.859374 16.191406 7.363281 10.46875-1.617188 21.207031-3.328125 30.402344-8.601563 9.191406-5.269531 16.636718-14.972656 16.105468-25.566406-.539062-10.796875-3.761718-11.847656 8.226563-23.136719 8.066406-7.601562 15.421875-17.984375 17.136719-29.183593 3.089844-20.175782-6.53125-13.265626-20.464844-17.160157-17.253906-4.824219-18.828125-27.683593-19.109375-44.15625-.046875-2.65625 2.382813-4.664062 4.984375-4.125 8.324219 1.734375 16.726562 4.625 24.882812 6.851563zm0 0" fill="#fff7e6"/><g fill="#ebe3d4"><path d="m168.886719 363.113281c-1.121094-.511719-2.234375-.640625-3.359375-.507812 2.976562 3.136719 5.699218 4.972656 8.207031 5.90625-1.328125-2.167969-2.601563-4.375-4.847656-5.398438zm0 0"/><path d="m253.566406 404.417969c-.210937.027343-.421875.054687-.632812.078125.234375.054687.464844.117187.699218.167968-.019531-.082031-.046874-.164062-.066406-.246093zm0 0"/><path d="m196.96875 124.429688c2.675781 6.097656 2.417969 15.675781 3.628906 23.515624l9.269532.308594c2.046874 5.566406-.671876 11.984375-5.042969 15.988282-4.371094 4.003906-10.101563 6.113281-15.671875 8.125 6.246094 16.832031-5.769532 25.882812-7.707032 32.246093-6.054687 19.894531 41.257813 34.140625 57.664063 32.199219 2.832031-.335938 5.894531-1.164062 9.082031-2.363281-19.136718-4.785157-40.980468-15.929688-36.746094-29.835938 1.9375-6.363281 13.953126-15.414062 7.707032-32.246093 5.570312-2.011719 11.300781-4.121094 15.671875-8.125 4.371093-4.003907 7.085937-10.421876 5.039062-15.988282l-9.269531-.308594c-1.207031-7.839843-.953125-17.417968-3.625-23.515624-2.671875-6.097657-24.933594-12.136719-29.957031-12.136719-.84375 0-2.382813 2.949219-4.53125 8.023437 2.226562 1.320313 3.878906 2.714844 4.488281 4.113282zm0 0"/><path d="m450.09375 46.683594c-6.84375-6.355469-25.753906-12.785156-24.242188-34.871094.117188-1.726562-1.195312-3.222656-2.925781-3.304688-19.207031-.910156-38.441406-1.195312-57.664062-.878906 9.226562.152344 18.449219.441406 27.664062.878906 1.730469.082032 3.042969 1.578126 2.925781 3.304688-1.511718 22.085938 17.398438 28.515625 24.242188 34.871094 11.800781 10.957031 12.222656 29.183594 11.804688 45.292968-.6875 26.527344-10.550782 22.425782-17.652344 35.148438-4.59375 8.222656-2.632813 18.851562-2.492188 25.734375 8.054688 1.75 16.171875 4.511719 24.066406 6.667969 12.199219 3.335937.46875-18.152344 8.425782-32.40625 7.101562-12.71875 16.964844-8.621094 17.652344-35.144532.417968-16.109374-.003907-34.335937-11.804688-45.292968zm0 0"/><path d="m425.0625 200.953125c-16.304688-4.558594-18.605469-25.21875-19.046875-41.378906-.066406-.019531-.125-.027344-.195313-.046875-8.15625-2.226563-16.558593-5.117188-24.882812-6.851563-2.601562-.542969-5.027344 1.464844-4.984375 4.125.28125 16.46875 1.855469 39.328125 19.109375 44.152344 13.933594 3.894531 23.554688-3.011719 20.464844 17.160156-1.714844 11.203125-9.070313 21.585938-17.136719 29.183594-11.988281 11.292969-8.765625 12.339844-8.226563 23.136719.53125 10.59375-6.914062 20.296875-16.105468 25.570312-4.003906 2.296875-8.300782 3.914063-12.742188 5.148438 3.1875 3.277344 5.082032 4.574218 12.339844 3.453125 10.46875-1.621094 21.210938-3.328125 30.402344-8.601563 9.195312-5.273437 16.640625-14.976562 16.109375-25.570312-.542969-10.796875-3.765625-11.84375 8.222656-23.136719 8.066406-7.597656 15.421875-17.980469 17.136719-29.183594 3.089844-20.171875-6.53125-13.265625-20.464844-17.160156zm0 0"/><path d="m325.339844 325.589844c1.816406-8.328125 3.636718-16.65625 5.453125-24.980469-.933594-.976563-1.992188-2.09375-3.328125-3.367187-6.527344-6.210938-16.988282-7.832032-25.085938-3.894532-2.347656 10.746094-4.691406 21.496094-7.039062 32.242188-1.835938 8.414062-1.886719 6.285156 25.867187 34.058594 3.988281 3.992187 4.296875 5.78125 2.570313 10.726562l-19.003906 54.410156c-.007813.027344-.027344.050782-.035157.082032 8.4375 2.660156 17.433594 2.765624 26.324219 2.597656 1.675781-.03125 3.15625-1.097656 3.710938-2.679688l19.003906-54.410156c1.726562-4.945312 1.417968-6.734375-2.570313-10.726562-27.753906-27.773438-27.703125-25.644532-25.867187-34.058594zm0 0"/></g><path d="m353.773438 370.375-19 54.410156c-.550782 1.582032-2.03125 2.652344-3.710938 2.683594-9.128906.167969-18.378906.058594-27.011719-2.820312-9.519531-3.171876-18.308593-10.421876-20.480469-20.230469-10.546874 1.277343-21.398437 2.539062-31.667968-.171875-11.101563-2.929688-21.53125-11.628906-22.152344-23.417969-.71875-13.75-15.347656-3.703125-22.027344-7.703125-3.871094-2.316406-4.730468-8.148438-8.839844-10.019531-9.371093-4.269531-18.261718 18.101562-35.542968-2.988281-4.757813-5.800782-8.277344-12.820313-14.398438-17.160157-8.257812-5.859375-12.871094-3.960937-17.28125-20.808593-.296875-1.140626-.597656-2.28125-.898437-3.421876h196.078125c-.5 2.289063-1 4.570313-1.5 6.859376-1.839844 8.421874-1.890625 6.289062 25.871094 34.0625 3.992187 3.988281 4.289062 5.777343 2.5625 10.726562zm0 0" fill="#00b0ff"/><path d="m351.210938 359.648438c-27.757813-27.773438-27.710938-25.640626-25.871094-34.0625.5-2.289063 1-4.570313 1.5-6.859376h-30c-.5 2.289063-1 4.570313-1.5 6.859376-1.839844 8.421874-1.886719 6.289062 25.871094 34.0625 3.992187 3.988281 4.289062 5.777343 2.5625 10.726562l-19 54.410156c-.011719.027344-.023438.050782-.035157.078125 8.433594 2.660157 17.433594 2.769531 26.324219 2.605469 1.679688-.03125 3.160156-1.101562 3.710938-2.683594l19-54.410156c1.726562-4.949219 1.429687-6.738281-2.5625-10.726562zm0 0" fill="#0091ea"/><path d="m461.902344 91.976562c-.691406 26.53125-10.550782 22.421876-17.660156 35.148438-7.953126 14.25 3.777343 35.730469-8.421876 32.402344-8.160156-2.230469-16.558593-5.121094-24.878906-6.851563-2.601562-.539062-5.03125 1.460938-4.992187 4.121094.101562 5.96875.382812 12.769531 1.511719 19.25h-71.570313c.328125-4.960937-.441406-9.898437-2.589844-14.238281-1.089843-2.191406-3.53125-3.390625-5.929687-2.910156-7.402344 1.476562-15.640625-1.441407-20.210938-7.511719-5.289062-7.03125-5.148437-17.660157.332032-24.550781 11.808593-14.867188 5.058593-5.988282-23.300782-19.519532-3.039062-1.449218-2.222656-1.007812 2.371094-46.890625 1.386719-13.859375.847656-10.519531 45.007812-44.46875 8.851563-6.800781 11.75-7.769531 21.859376-8.070312 23.160156-.679688 46.351562-.46875 69.492187.621093 1.730469.078126 3.046875 1.578126 2.929687 3.308594-1.511718 22.082032 17.398438 28.511719 24.238282 34.871094 11.800781 10.949219 12.230468 29.179688 11.8125 45.289062zm0 0" fill="#ff4b22"/><path d="m405.820312 159.527344c-8.160156-2.230469-16.558593-5.121094-24.878906-6.851563-2.601562-.539062-5.03125 1.460938-4.988281 4.121094.097656 5.96875.378906 12.769531 1.507813 19.25h30c-.957032-5.496094-1.300782-11.222656-1.445313-16.476563-.066406-.015624-.125-.023437-.195313-.042968zm0 0" fill="#ef4722"/><path d="m450.089844 46.6875c-6.839844-6.359375-25.75-12.789062-24.238282-34.871094.121094-1.730468-1.199218-3.230468-2.929687-3.308594-19.246094-.90625-38.523437-1.195312-57.792969-.878906 9.269532.152344 18.535156.441406 27.792969.878906 1.730469.078126 3.050781 1.578126 2.929687 3.308594-1.511718 22.082032 17.398438 28.511719 24.238282 34.871094 11.800781 10.949219 12.230468 29.179688 11.8125 45.289062-.691406 26.53125-10.550782 22.421876-17.660156 35.148438-4.589844 8.226562-2.625 18.851562-2.488282 25.734375 8.054688 1.746094 16.171875 4.507813 24.066406 6.667969 12.203126 3.328125.472657-18.152344 8.421876-32.402344 7.109374-12.726562 16.96875-8.617188 17.660156-35.148438.417968-16.109374-.011719-34.339843-11.8125-45.289062zm0 0" fill="#ef4722"/><path d="m334.355469 475.203125c.789062.488281 1.570312 1.042969 2.082031 1.820313.53125.808593.730469 1.789062.894531 2.746093 1.019531 5.871094 1.316407 11.867188.875 17.808594-.039062.539063-.089843 1.101563-.367187 1.570313-.375.640624-1.09375.984374-1.773438 1.277343-7.976562 3.421875-16.847656 4.730469-25.472656 3.761719-.433594-.050781-.886719-.113281-1.238281-.367188-.542969-.394531-.695313-1.117187-.917969-1.75-2.113281-6.015624-11.441406-5.515624-15.324219-10.570312-2.183593-2.839844-2.121093-6.808594-1.410156-10.320312.707031-3.511719 1.964844-6.972657 1.832031-10.554688-.0625-1.679688-.367187-3.585938.734375-4.855469.613281-.699219 1.53125-1.035156 2.410157-1.339843 2.375-.828126 4.75-1.65625 7.125-2.484376.933593-.328124 1.914062-.65625 2.890624-.507812 1.25.1875 2.238282 1.113281 3.144532 1.992188 3.519531 3.417968 6.429687 7.394531 11.070312 8.554687 4.632813 1.15625 9.109375-.039063 13.445313 3.21875zm0 0" fill="#0091ea"/><path d="m78.664062 458.398438c-1.570312 1.183593-3.203124 2.40625-5.125 2.832031-3.457031.769531-6.953124-1.203125-9.550781-3.613281-2.597656-2.414063-4.75-5.355469-7.738281-7.261719-8.300781-5.292969-19.097656-.792969-28.9375-.867188-6.039062-.046875-12.054688-1.957031-17.019531-5.40625-.664063-.464843-1.332031-.972656-1.75-1.667969-.585938-.96875-.617188-2.179687-.472657-3.304687 1.046876-8.359375 9.882813-13.273437 17.964844-15.632813 4.992188-1.457031 10.628906-2.402343 15.183594.105469 2.136719 1.179688 3.832031 3.023438 5.894531 4.328125 2.171875 1.375 4.675781 2.109375 7.171875 2.726563 7.136719 1.765625 14.484375 2.683593 21.839844 2.726562 5.4375.035157 16.183594-2.925781 20.964844.402344 10.339844 7.191406-14.097656 21.359375-18.425782 24.632813zm0 0" fill="#00b0ff"/><path d="m39.84375 386.054688c2.75 3.554687 5.53125 7.144531 8.996094 10.007812 5.335937 4.40625 11.984375 6.839844 18.488281 9.199219 3.210937 1.164062 6.449219 2.332031 9.824219 2.84375 11.328125 1.707031 23.101562-4.132813 34.121094-1.011719.339843-7.152344-3.285157-14.363281-9.222657-18.351562-4.921875-3.304688-11.054687-4.398438-16.023437-7.632813-4.46875-2.902344-7.859375-7.441406-12.757813-9.527344-15.246093-6.492187-23.074219 6.585938-33.425781 14.472657zm0 0" fill="#00b0ff"/><path d="m88.484375 316.484375c-9.214844-.191406-30.152344 21.738281-29.496094 25.640625.890625 5.316406 24.152344 8.234375 29.085938 10.667969 15.355469 7.5625 37.351562 30.210937 43.222656 24 1.25-1.320313 16.253906-3.078125-11.675781-30.359375-10.289063-10.050782-8.082032-29.476563-31.136719-29.949219zm0 0" fill="#00b0ff"/><path d="m296.292969 174.332031c-2.832031-.753906-5.582031-1.980469-8.511719-2.136719-7.296875-.382812-13.054688 5.683594-18.554688 10.5-5.507812 4.820313-11.742187 8.777344-18.363281 11.898438-2.136719 1.007812-4.355469 1.953125-6.117187 3.53125-1.757813 1.578125-3.007813 3.960938-2.550782 6.285156.402344 2.074219 2.097657 3.710938 4.015626 4.59375 1.917968.882813 4.0625 1.121094 6.164062 1.328125 4.445312.429688 8.90625.742188 13.371094.929688 1.8125.078125 3.648437.132812 5.417968-.277344 2.296876-.53125 4.34375-1.816406 6.300782-3.140625 7.976562-5.40625 15.21875-11.820312 22.429687-18.21875 2.886719-2.558594 8.421875-7.113281 8.335938-11.46875-.097657-4.773438-8.484375-2.910156-11.9375-3.824219zm0 0" fill="#fff7e6"/><path d="m220.988281 39.636719c-3.367187 2.773437-7.566406 3.058593-11.21875 6.671875-3.652343 3.609375-7.554687 18.511718-9.890625 28.398437-.1875.804688-.324218 1.691407.058594 2.421875.351562.671875 1.058594 1.058594 1.726562 1.40625 2.792969 1.46875 5.585938 2.933594 8.378907 4.398438.777343.40625 1.609375.828125 2.484375.757812 1.261718-.097656 2.199218-1.160156 3.023437-2.121094 4.566407-5.324218 9.925781-9.96875 15.847657-13.726562.96875-.613281 1.996093-1.25 2.53125-2.265625.449218-.851563.488281-1.855469.496093-2.820313.070313-10.941406 3.824219-29.097656 1.585938-32.507812-2.238281-3.40625-7.035157-1.167969-8.308594-.003906-2.636719 2.410156-3.570313 6.792968-6.714844 9.390625zm0 0" fill="#ff4b22"/><path d="m462.3125 86.054688c-.105469-.003907-.210938-.003907-.320312-.003907-3.996094 0-7.316407 3.15625-7.484376 7.1875-.90625 21.710938-8.257812 15.175781-16.664062 30.226563-4.761719 8.53125-4.125 18.285156-3.65625 25.40625.050781.746094.105469 1.582031.148438 2.402344-1.53125-.445313-3.082032-.90625-4.683594-1.382813-5.535156-1.648437-11.261719-3.351563-17.046875-4.558594-7.3125-1.523437-14.144531 4.125-14.015625 11.59375.054687 3.089844.128906 7.140625.5 11.621094h-55.902344c-.507812-3.550781-1.511719-6.953125-3.050781-10.066406-2.589844-5.230469-8.394531-8.078125-14.121094-6.9375-4.726563.945312-9.976563-.972657-12.753906-4.664063-3.222657-4.28125-3.128907-11.179687.203125-15.375l.273437-.34375c5.285157-6.644531 8.195313-10.308594 6.441407-15.515625-1.679688-4.996093-6.296876-6.175781-11.183594-7.421875-4.207032-1.074218-10.378906-2.652344-18.949219-6.503906.328125-5.257812 1.835937-18.132812 4.078125-40.546875l.019531-.207031c.527344-5.289063.683594-6.0625 2.148438-7.777344 3.792969-4.425781 15.140625-12.207031 39.960937-31.28125 7.820313-6.007812 9.1875-6.269531 17.519532-6.515625 21.453124-.636719 43.179687-.496094 64.65625.417969.671874 18.535156 13.78125 27.382812 21.847656 32.828125 4.019531 2.710937 8.875 5.589843 11.902344 15.386719 1.226562 3.957031 5.425781 6.175781 9.382812 4.949218 3.957031-1.222656 6.171875-5.421875 4.949219-9.378906-3.996094-12.925781-10.558594-18.476562-17.84375-23.394531-7.910157-5.335938-16.085938-10.851563-15.195313-23.875.195313-2.828125-.773437-5.664063-2.660156-7.777344-1.902344-2.140625-4.53125-3.394531-7.390625-3.53125-23.25-1.0976562-46.828125-1.308594-70.089844-.621094-11.847656.351563-16.257812 1.96875-26.214843 9.621094-43.804688 33.65625-46.160157 32.070313-47.898438 49.457031l-.019531.207032c-2.863281 28.628906-4.21875 38.800781-4.207031 43.878906.007812 5.28125 1.878906 8.523437 6.070312 10.523437 8.960938 4.273438 15.957031 6.460938 20.890625 7.800781l-.230469.289063c-7.5625 9.515625-7.753906 24.011719-.445312 33.726563 5.882812 7.820312 16.164062 11.964843 26.027344 10.632812 1.03125 2.691406 1.433593 5.785156 1.226562 9.003906 0 .03125 0 .058594-.003906.085938-.277344 4.167968-1.574219 8.546875-3.835938 12.5625-6.511718 11.550781-38.019531 39.011718-56.371094 41.179687-11.253906 1.335938-39.125-6.507812-47.800781-16.882812-2.601562-3.117188-2.054687-4.914063-1.820312-5.679688.199219-.664062 1.371093-2.46875 2.222656-3.78125 3.542969-5.453125 9.085937-13.988281 7.242187-26.042969 4.039063-1.707031 8.230469-3.925781 11.808594-7.203124 7.109375-6.507813 9.929688-16.199219 7.015625-24.109376-1.050781-2.863281-3.738281-4.804687-6.785156-4.90625l-2.800781-.09375c-.042969-.523437-.089844-1.050781-.136719-1.585937-.523437-6.125-1.066406-12.457031-3.347656-17.660156-1.328125-3.035157-4.691407-7.625-18.503907-12.429688-5.996093-2.085937-14.214843-4.199219-18.328124-4.199219-6.015626 0-8.46875 5.6875-11.0625 11.710938-2.019532 4.6875-4.601563 11.355469-7.589844 19.078125-9.523438 24.597656-23.914063 61.769531-41.066406 89.664063-2.167969 3.527343-1.066407 8.148437 2.460937 10.316406 3.527344 2.167968 8.148437 1.066406 10.316406-2.460938 17.867188-29.058594 32.554688-67 42.273438-92.105468 3.113281-8.035157 6.304687-16.277344 8.296875-20.65625 6.351562 1.386718 17.105468 5.074218 19.640625 7.527343 1.152343 2.980469 1.566406 7.8125 1.96875 12.496094.246093 2.882813.5 5.863281.941406 8.726563.550781 3.5625 3.558594 6.230468 7.160156 6.351562l1.851563.0625c-.566406 1.144531-1.398438 2.265625-2.433594 3.210938-3.332031 3.050781-8.328125 4.855468-13.160156 6.605468-1.882813.679688-3.414063 2.082032-4.253906 3.894532-.84375 1.816406-.925782 3.890624-.230469 5.769531 3.292969 8.863281-.179688 14.207031-3.855469 19.867187-1.632812 2.515625-3.175781 4.894532-3.996094 7.582032-1.433594 4.714843-1.789062 11.953124 4.667969 19.671874 11.304687 13.523438 40.324219 22.386719 56.863281 22.386719 1.511719 0 2.921875-.074219 4.203125-.226562 24.460938-2.894531 59.476563-34.167969 67.671875-48.714844 2.167969-3.84375 3.734375-7.902344 4.691406-12h59.160157c3 10.886719 9.085937 21.136719 21.582031 24.628906 6.703125 1.875 12.335938 1.636719 15.503906 2.179688.101563.9375.136719 2.902343-.433594 6.621093-1.234374 8.0625-6.65625 17.125-14.871093 24.859376-10.75 10.125-12.121094 14.714843-11.003907 24.257812.167969 1.4375.34375 2.925781.433594 4.714844.390625 7.792968-5.925781 15.003906-12.355468 18.6875-8.105469 4.648437-18.128907 6.195312-27.824219 7.695312-3.382813.523438-4.183594.222656-4.1875.21875-.574219-.230468-3.117188-3.148437-5.695313-5.601562-8.8125-8.382813-22.605468-10.523438-33.542968-5.207032-2.066407 1.003907-3.558594 2.898438-4.046876 5.144532l-4.253906 19.480468h-184.304687l-10.410157-39.703124c-1.617187-6.160157-1.648437-6.277344 3.664063-11.632813 2.917969-2.941406 2.898437-7.691406-.039063-10.605469-2.941406-2.917968-7.6875-2.902344-10.609374.039063-8.90625 8.980469-10.523438 14.570312-7.527344 26.003906l12.777344 48.726563c5.242187 19.980468 12.566406 19.601562 20.203124 25.019531 4.730469 3.355469 8.191407 10.007812 12.9375 15.796875 17.988282 21.941406 32.660157 7.457031 38.375 5.320312 1.570313 2.078125 3.417969 6.636719 7.964844 9.367188 6.289063 3.769531 13.816406 1.292968 18.375 1.210937.015625.136719.023438.285157.035156.453125.445313 8.550782 4.78125 16.542969 12.207032 22.503906 3.222656 2.589844 7.945312 2.085938 10.546875-1.152343 2.59375-3.226563 2.078125-7.949219-1.152344-10.542969-2.863281-2.300781-6.339844-6.179688-6.621094-11.59375-.265625-5.035156-1.964843-8.894531-5.050781-11.472656-4.878906-4.078125-11.1875-3.277344-15.792969-2.695313-1.492187.1875-3.925781.496094-4.910156.339844-1.636719-1.738281-3.601563-7.632813-9.507813-10.324219-6.855468-3.121094-12.792968.273438-17.128906 2.753906-6.125 3.503907-8.660156 4.957032-15.738281-3.675781-4.542969-5.542969-8.488281-13.296875-15.859375-18.523437-7.324219-5.191406-9.949219-4.101563-12.511719-10.613282h176.839844c-1.921875 10.925782 2.738281 13.101563 28.351563 38.722657.671874.667969 1.058593 1.109375 1.28125 1.386719-.078126.3125-.222657.804687-.484376 1.5625l-18.203124 52.105468c-7.496094.085938-15.242188-.1875-22.089844-2.46875-8.046875-2.683594-14.148438-8.46875-15.539063-14.738281-.832031-3.769531-4.398437-6.292969-8.222656-5.824219-4.144531.503906-8.839844 1.074219-13.355469 1.292969-4.136718.195313-7.332031 3.714844-7.132812 7.851563.199218 4.136718 3.703125 7.339843 7.851562 7.128906 2.894532-.140625 5.757813-.394532 8.503906-.691406 4.195313 8.613281 12.574219 15.6875 23.152344 19.210937 9.613282 3.203125 19.476563 3.390625 29.535156 3.195313 4.789063-.089844 9.070313-3.183594 10.648438-7.707032l19.011719-54.40625c2.703125-7.746094 1.566406-12.589844-4.347657-18.503906-14.179687-14.183594-22.871093-22.277344-24.332031-24.808594.066407-.464844.246094-1.285156.398438-1.96875 1.957031-8.960937 3.308593-15.15625 6.226562-28.535156 4.710938-.96875 10.058594.378906 13.492188 3.644531 6.503906 6.1875 8.964843 11.433594 22.511719 9.339844 10.53125-1.628906 22.472656-3.472656 32.996093-9.503906 12.695313-7.28125 20.496094-20.019531 19.871094-32.453125-.113281-2.289063-.335937-4.1875-.515625-5.707032-.542969-4.644531-.585938-5.023437 6.390625-11.59375 6.234375-5.871093 17.042969-18.027343 19.414063-33.507812.980468-6.378906 1.4375-13.574219-2.566407-18.609375-5.722656-7.191406-14.589843-4.480469-23.292969-6.910156-10.515624-2.941407-12.960937-17.644531-13.523437-32.753907 3.875.96875 7.820313 2.144532 11.671875 3.289063 7.660156 2.28125 14.316406 5.171875 19.738281.742187 4.902344-4.003906 4.484375-10.375 4.042969-17.117187-.382812-5.835937-.816406-12.453125 1.785156-17.113281 5.558594-9.957032 17.402344-9.316406 18.550782-36.914063.171874-4.140625-3.042969-7.632812-7.179688-7.808593zm0 0"/><path d="m338.683594 468.992188c-4.5-3.253907-9.035156-3.601563-12.367188-3.855469-1.34375-.101563-2.503906-.1875-3.484375-.433594-4.234375-1.058594-7.609375-9.574219-14.90625-10.683594-2.84375-.433593-5.210937.394531-6.488281.839844-5.457031 3.054687-15.8125 1.40625-15.296875 16.042969.085937 2.246094-1 5.375-1.6875 8.789062-4.167969 20.609375 14.140625 22.667969 17.078125 25.058594 2.230469 6.84375 7.582031 7.246094 14.773438 7.246094 7.824218 0 15.613281-1.585938 22.832031-4.683594.992187-.425781 3.625-1.554688 5.28125-4.363281 2.839843-4.828125 1.375-18.949219.417969-24.464844-.730469-4.199219-2.289063-7.042969-6.152344-9.492187zm-7.699219 25.421874c-5.296875 1.925782-10.929687 2.792969-16.605469 2.535157-4.25-7.015625-13.679687-8.019531-15.21875-10.023438-1.488281-1.933593 2.078125-9.4375 1.984375-16.078125l4.167969-1.453125c7.183594 7.238281 9.484375 9.910157 19.863281 10.703125 2.410157.179688 3.578125.234375 4.925781 1.199219.734376 4.328125 1.03125 8.730469.882813 13.117187zm0 0"/><path d="m101.414062 427.605469c-7.820312-5.445313-20.71875-1.589844-25.203124-1.742188-7.367188-.046875-21.140626-1.8125-25.054688-4.292969-3.71875-2.355468-9.203125-10.550781-27.203125-5.296874-21.851563 6.378906-26.464844 22.296874-21.8125 30.015624 1.148437 1.90625 2.683594 3.113282 3.890625 3.949219 6.179688 4.292969 13.722656 6.691407 21.246094 6.75 10.03125.046875 19.703125-3.671875 24.972656-.308593 1.175781.75 2.425781 2.070312 3.746094 3.472656.910156.964844 1.847656 1.960937 2.921875 2.957031 5.621093 5.21875 11.464843 6.515625 16.289062 5.441406 3.550781-.792969 6.132813-2.746093 8.019531-4.175781.429688-.324219 1.417969-.984375 2.457032-1.6875 10.824218-7.277344 21.402344-15.167969 21.476562-24.585938.035156-4.167968-2.003906-7.898437-5.746094-10.496093zm-24.09375 22.632812c-1.328124.890625-2.375 1.597657-3.140624 2.171875-.632813.480469-1.804688 1.367188-2.15625 1.488282-4.277344-.0625-7.96875-13.632813-25.796876-13.632813-3.519531 0-6.996093.476563-10.28125.925781-2.984374.410156-5.804687.792969-8.363281.792969-.0625 0-.125 0-.1875 0-4.023437-.03125-8.0625-1.171875-11.523437-3.242187 1.488281-3.714844 7.125-6.5625 12.285156-8.070313 9.992188-2.914063 9.375.023437 14.972656 3.570313 7.542969 4.777343 23.964844 6.5625 32.984375 6.617187 2.101563-.003906 4.4375-.269531 6.914063-.574219 1.9375-.234375 5.375-.648437 7.753906-.609375-1.835938 2.0625-5.699219 5.34375-13.460938 10.5625zm0 0"/><path d="m106.277344 382.511719c-3.183594-2.136719-6.582032-3.476563-9.582032-4.65625-5.941406-2.339844-6.660156-2.824219-10.738281-6.4375-2.664062-2.355469-5.679687-5.023438-9.714843-6.738281-16.335938-6.953126-27.027344 2.917968-34.835938 10.121093-2.09375 1.929688-4.066406 3.75-6.078125 5.285157-3.3125 2.519531-3.9375 7.261718-1.390625 10.554687 9.039062 11.6875 13.375 15.332031 30.871094 21.667969 10.785156 3.90625 15.050781 4.546875 29.246094 2.390625 5.558593-.84375 10.8125-1.640625 15.222656-.394531 4.667968 1.316406 9.308594-2.0625 9.535156-6.863282.460938-9.722656-4.460938-19.507812-12.535156-24.929687zm-14.46875 17.355469c-4.851563.734374-9.429688 1.433593-13.5.816406-2.652344-.398438-5.441406-1.410156-8.390625-2.480469-8.613281-3.117187-14.292969-5.246094-19.621094-11.199219.429687-.394531.855469-.789062 1.277344-1.179687 8.261719-7.621094 12.023437-10.226563 18.792969-7.34375 3.292968 1.398437 6.796874 5.785156 11.613281 8.914062 8.101562 5.265625 15.378906 4.84375 19.589843 11.332031-3.394531.171876-6.675781.671876-9.761718 1.140626zm0 0"/><path d="m124.914062 341.066406c-2.433593-2.375-4.128906-6.003906-5.929687-9.847656-4.308594-9.207031-10.210937-21.820312-30.304687-22.234375-.085938-.003906-.167969-.003906-.253907-.003906-12.296875 0-28.296875 18.105469-30.09375 20.183593-6.316406 7.3125-7.253906 10.964844-6.710937 14.199219 1.421875 8.464844 12.46875 11.0625 25.257812 14.066407 8.375 1.96875 8.332032 1.109374 25.671875 13.953124 5.621094 4.164063 10.929688 8.097657 15.664063 10.695313 3.992187 2.1875 7.539062 3.285156 10.621094 3.28125 2.675781 0 5-.824219 6.960937-2.46875 2.015625-.980469 6.964844-3.632813 8.011719-9.964844 1.320312-7.984375-4.507813-17.8125-18.894532-31.859375zm2.921876 29.050782c-3.511719-1.269532-11.144532-6.925782-16.355469-10.785157-19.316407-14.308593-20.742188-14.054687-31.171875-16.503906-2.886719-.679687-7.863282-1.847656-11.433594-3.007813 5.074219-6.082031 15.472656-15.347656 19.578125-15.839843 10.699219.246093 13.050781 5.277343 16.945313 13.597656 2.183593 4.660156 4.652343 9.941406 9.035156 14.21875 10.765625 10.515625 13.570312 15.808594 14.300781 17.847656-.277344.132813-.578125.289063-.898437.472657zm0 0"/><path d="m239.828125 192.539062c-7.9375 7.121094-6.515625 18.753907 3.34375 23.277344 3.164063 1.453125 6.417969 1.765625 8.566406 1.976563 18.71875 1.816406 22.125 1.609375 30.027344-3.746094 8.511719-5.765625 16.09375-12.507813 23.78125-19.316406 3.902344-3.429688 10.4375-9.171875 10.285156-16.726563-.09375-4.753906-3.144531-8.59375-7.964843-10.023437-3.722657-1.105469-8.054688-.6875-9.625-.921875-2.636719-.714844-5.90625-2.140625-9.964844-2.355469-15.484375-.816406-19.90625 13.390625-40.519532 23.101563-2.871093 1.339843-5.472656 2.53125-7.929687 4.734374zm34.433594-4.203124c.65625-.574219 1.320312-1.167969 1.984375-1.765626 12.769531-11.449218 10.917968-5.386718 21-4.539062-4.605469 4.246094-23.253906 20.617188-27.675782 21.640625-2.109374.492187-15.984374-.707031-18.117187-1.003906 2.46875-1.296875 12.4375-5.257813 22.808594-14.332031zm0 0"/><path d="m198.257812 85.179688c8.09375 3.996093 10.496094 6.339843 14.933594 5.988281 4.386719-.347657 7.011719-3.410157 8.132813-4.714844 4.097656-4.777344 8.867187-8.90625 14.234375-12.3125 4.332031-2.75 6.410156-5.738281 6.453125-11.335937.023437-3.964844.613281-9.234376 1.179687-14.332032 1.355469-12.179687 1.886719-18.214844-.824218-22.34375-4.546876-6.917968-14.148438-6.433594-19.640626-1.421875-3.550781 3.246094-5 7.964844-6.425781 9.140625-2.066406 1.703125-7.035156 2.484375-11.726562 7.125-2.808594 2.78125-6.421875 8.757813-11.917969 32.003906-.25 1.070313-1.023438 4.328126.71875 7.636719 1.449219 2.765625 3.855469 4.027344 4.882812 4.566407zm16.929688-33.605469c2.214844-2.136719 6.492188-2.726563 10.648438-6.152344 1.179687-.972656 2.132812-2.023437 2.933593-3.085937-.164062 1.570312-.335937 3.121093-.484375 4.476562-.574218 5.132812-1.164062 10.429688-1.261718 14.980469-5.792969 3.730469-11.0625 8.199219-15.6875 13.308593l-3.339844-1.753906c4.316406-17.554687 6.796875-21.265625 7.191406-21.773437zm0 0"/></svg>