<svg height="512pt" viewBox="-16 0 512 512" width="512pt" xmlns="http://www.w3.org/2000/svg"><path d="m7.5 17.5h90v30h-90zm0 0" fill="#bde8ff"/><path d="m473.496094 47.5h-30.066406l-15-15 15-15h30.066406zm0 0" fill="#a1cbff"/><path d="m383.429688 17.5h60.066406v30h-60.066406zm0 0" fill="#bde8ff"/><path d="m383.464844 7.5-30.015625 70 60.015625-30v-40zm0 0" fill="#ba0000"/><g fill="#dc0000"><path d="m323.464844 7.5-45 85 105-45v-40zm0 0"/><path d="m67.5 7.5v40l135 45-45-85zm0 0"/><path d="m413.464844 47.5v457h-29.96875l-40.054688-271.378906 40.054688-185.621094zm0 0"/></g><path d="m383.464844 47.5v457h-59.96875l-40.054688-271.378906 40.054688-185.621094zm0 0" fill="#fe0000"/><path d="m67.433594 47.5v457h89.964844l40.054687-271.378906-40.054687-185.621094zm0 0" fill="#fe0000"/><path d="m323.496094 47.5-83.03125 66.519531-82.964844-66.519531v-40h165.996094zm0 0" fill="#4e4b44"/><path d="m157.5 47.5h166v457h-166zm0 0" fill="#68645b"/><path d="m293.496094 384.945312-21.210938-21.210937-31.820312 31.820313-31.820313-31.820313-21.210937 21.210937 31.820312 31.820313-31.820312 31.820313 21.210937 21.214843 31.820313-31.820312 31.820312 31.820312 21.210938-21.214843-31.816406-31.820313zm0 0" fill="#fff"/><path d="m293.496094 244.179688-21.210938-21.210938-31.820312 31.816406-31.820313-31.816406-21.210937 21.210938 31.820312 31.820312-31.820312 31.820312 21.210937 21.210938 31.820313-31.816406 31.820312 31.816406 21.210938-21.210938-31.816406-31.820312zm0 0" fill="#fff"/><path d="m293.496094 103.414062-21.210938-21.214843-31.820312 31.820312-31.820313-31.820312-21.210937 21.214843 31.820312 31.820313-31.820312 31.820313 21.210937 21.210937 31.820313-31.820313 31.820312 31.820313 21.210938-21.210937-31.816406-31.820313zm0 0" fill="#fff"/><path d="m473.496094 0c-4.140625 0-7.5 3.359375-7.5 7.5v2.5h-45v-2.5c0-4.140625-3.355469-7.5-7.5-7.5h-345.996094c-4.140625 0-7.5 3.355469-7.5 7.5v2.5h-45v-2.5c0-4.140625-3.359375-7.5-7.5-7.5s-7.5 3.359375-7.5 7.5v50c0 4.140625 3.359375 7.5 7.5 7.5s7.5-3.359375 7.5-7.5v-2.5h44.992188l-.058594 449.5c0 1.988281.789062 3.894531 2.195312 5.304688 1.40625 1.40625 3.3125 2.195312 5.304688 2.195312h346.0625c4.144531 0 7.5-3.359375 7.5-7.5v-449.5h45v2.5c0 4.140625 3.359375 7.5 7.5 7.5 4.144531 0 7.5-3.359375 7.5-7.5v-50c0-4.140625-3.355469-7.5-7.5-7.5zm-308.5 40v-25h151v25zm151 15v442h-151.0625l.058594-442zm-300.996094-15v-15h44.996094v15zm59.992188 7.605469c0-.035157.007812-.070313.007812-.105469s-.007812-.070312-.007812-.105469l.003906-29.867187c0-.054688 0-2.527344 0-2.527344h75v25h-52.539063c-4.140625 0-7.5 3.359375-7.5 7.5s3.359375 7.5 7.5 7.5h52.535157l-.058594 442h-75zm256.003906 449.394531v-442h52.46875c4.140625 0 7.5-3.359375 7.5-7.5s-3.359375-7.5-7.5-7.5h-52.46875v-25h75v1.546875c-.039063.3125-.066406.628906-.066406.953125s.027343.640625.066406.953125v28.09375c-.039063.3125-.066406.628906-.066406.953125s.027343.640625.066406.957031v448.542969zm90-457v-15h45v15zm0 0"/><path d="m300.996094 384.945312c0-1.988281-.789063-3.894531-2.195313-5.300781l-21.210937-21.214843c-2.929688-2.925782-7.679688-2.925782-10.609375 0l-26.515625 26.519531-26.515625-26.519531c-1.40625-1.40625-3.316407-2.195313-5.304688-2.195313s-3.898437.789063-5.300781 2.195313l-21.214844 21.214843c-2.929687 2.929688-2.929687 7.675781 0 10.605469l26.515625 26.515625-26.515625 26.519531c-1.40625 1.40625-2.195312 3.3125-2.195312 5.300782 0 1.988281.789062 3.898437 2.195312 5.304687l21.214844 21.210937c2.925781 2.929688 7.675781 2.929688 10.605469 0l26.515625-26.515624 26.515625 26.515624c1.464843 1.464844 3.386719 2.199219 5.304687 2.199219 1.917969 0 3.839844-.734375 5.304688-2.199219l21.210937-21.210937c1.40625-1.40625 2.195313-3.316406 2.195313-5.304687 0-1.988282-.789063-3.894532-2.195313-5.300782l-26.515625-26.519531 26.515625-26.515625c1.40625-1.40625 2.195313-3.3125 2.195313-5.304688zm-44.621094 26.519532c-1.40625 1.402344-2.195312 3.3125-2.195312 5.300781s.789062 3.898437 2.195312 5.304687l26.515625 26.515626-10.605469 10.605468-26.515625-26.515625c-1.464843-1.464843-3.386719-2.199219-5.304687-2.199219-1.917969 0-3.839844.734376-5.304688 2.199219l-26.515625 26.515625-10.605469-10.605468 26.515626-26.515626c1.410156-1.40625 2.199218-3.316406 2.199218-5.304687s-.789062-3.898437-2.199218-5.300781l-26.515626-26.519532 10.605469-10.605468 26.515625 26.515625c2.929688 2.929687 7.679688 2.929687 10.609375 0l26.515625-26.515625 10.605469 10.605468zm0 0"/><path d="m182.128906 313.121094 21.214844 21.214844c1.402344 1.40625 3.3125 2.195312 5.300781 2.195312s3.898438-.789062 5.304688-2.195312l26.515625-26.515626 26.515625 26.515626c1.40625 1.40625 3.316406 2.195312 5.304687 2.195312 1.988282 0 3.898438-.789062 5.304688-2.195312l21.210937-21.214844c1.40625-1.402344 2.195313-3.3125 2.195313-5.300782 0-1.988281-.789063-3.898437-2.195313-5.304687l-26.515625-26.515625 26.515625-26.515625c1.410157-1.40625 2.199219-3.316406 2.199219-5.304687 0-1.988282-.789062-3.898438-2.199219-5.300782l-21.210937-21.214844c-2.929688-2.929687-7.679688-2.929687-10.605469 0l-26.519531 26.515626-26.515625-26.515626c-1.40625-1.40625-3.3125-2.195312-5.304688-2.195312-1.988281 0-3.894531.789062-5.300781 2.195312l-21.214844 21.214844c-2.929687 2.925782-2.929687 7.675782 0 10.605469l26.515625 26.515625-26.515625 26.515625c-2.929687 2.929687-2.929687 7.679687 0 10.605469zm42.425782-31.816406c1.40625-1.40625 2.199218-3.316407 2.199218-5.304688s-.792968-3.898438-2.199218-5.304688l-26.515626-26.515624 10.605469-10.605469 26.515625 26.515625c2.929688 2.929687 7.679688 2.929687 10.609375 0l26.515625-26.515625 10.605469 10.605469-26.515625 26.515624c-1.40625 1.40625-2.195312 3.316407-2.195312 5.304688s.789062 3.898438 2.195312 5.304688l26.515625 26.515624-10.605469 10.605469-26.515625-26.515625c-1.40625-1.40625-3.316406-2.195312-5.304687-2.195312-1.988282 0-3.898438.789062-5.304688 2.195312l-26.515625 26.515625-10.605469-10.605469zm0 0"/><path d="m182.128906 172.355469 21.214844 21.214843c1.402344 1.40625 3.3125 2.195313 5.300781 2.195313s3.898438-.789063 5.304688-2.195313l26.515625-26.519531 26.515625 26.519531c1.40625 1.40625 3.316406 2.195313 5.304687 2.195313 1.988282 0 3.898438-.789063 5.304688-2.195313l21.210937-21.214843c1.40625-1.40625 2.195313-3.3125 2.195313-5.300781 0-1.992188-.789063-3.898438-2.195313-5.304688l-26.515625-26.515625 26.515625-26.519531c1.40625-1.40625 2.195313-3.3125 2.195313-5.300782 0-1.988281-.789063-3.898437-2.195313-5.304687l-21.210937-21.210937c-2.929688-2.929688-7.679688-2.929688-10.609375 0l-26.515625 26.515624-26.515625-26.515624c-1.40625-1.410157-3.316407-2.199219-5.304688-2.199219s-3.898437.789062-5.300781 2.199219l-21.214844 21.210937c-1.40625 1.40625-2.195312 3.316406-2.195312 5.304687 0 1.988282.789062 3.894532 2.195312 5.300782l26.515625 26.519531-26.515625 26.515625c-2.929687 2.929688-2.929687 7.679688 0 10.605469zm42.425782-31.820313c1.40625-1.402344 2.199218-3.3125 2.199218-5.300781s-.792968-3.898437-2.199218-5.304687l-26.515626-26.515626 10.605469-10.605468 26.515625 26.515625c1.40625 1.40625 3.316406 2.199219 5.304688 2.199219 1.988281 0 3.894531-.792969 5.300781-2.199219l26.519531-26.515625 10.605469 10.605468-26.515625 26.515626c-1.40625 1.40625-2.199219 3.316406-2.199219 5.304687s.792969 3.898437 2.199219 5.300781l26.515625 26.519532-10.605469 10.605468-26.519531-26.515625c-1.40625-1.40625-3.3125-2.199219-5.300781-2.199219-1.988282 0-3.898438.792969-5.304688 2.199219l-26.515625 26.515625-10.605469-10.605468zm0 0"/></svg>